<svg id="Capa_1" data-name="Capa 1" xmlns="http://www.w3.org/2000/svg" xmlns:xlink="http://www.w3.org/1999/xlink" viewBox="0 0 66.82 77.15"><defs><style>.cls-1{fill:url(#Degradado_sin_nombre_43);}.cls-2{fill:#f7f5f5;}</style><linearGradient id="Degradado_sin_nombre_43" y1="38.58" x2="66.82" y2="38.58" gradientUnits="userSpaceOnUse"><stop offset="0.01"/><stop offset="0.01" stop-color="#020000"/><stop offset="0.05" stop-color="#2c080c"/><stop offset="0.09" stop-color="#520f17"/><stop offset="0.14" stop-color="#721620"/><stop offset="0.19" stop-color="#8c1a27"/><stop offset="0.25" stop-color="#a01e2d"/><stop offset="0.32" stop-color="#ae2131"/><stop offset="0.4" stop-color="#b72333"/><stop offset="0.53" stop-color="#b92334"/><stop offset="0.72" stop-color="#b72333"/><stop offset="0.78" stop-color="#b02132"/><stop offset="0.83" stop-color="#a51f2e"/><stop offset="0.87" stop-color="#941c29"/><stop offset="0.9" stop-color="#7e1823"/><stop offset="0.93" stop-color="#62131c"/><stop offset="0.96" stop-color="#420c13"/><stop offset="0.98" stop-color="#1e0608"/><stop offset="1"/></linearGradient></defs><title>logo_birobid</title><polygon class="cls-1" points="0 19.29 0 57.87 33.41 77.16 66.82 57.87 66.82 19.29 33.41 0 0 19.29"/><path class="cls-2" d="M48,42.93,27.49,58.41A2.35,2.35,0,0,1,23.8,56.3V56a2.63,2.63,0,0,1,1.05-2.13l17.83-13v-.26L24.73,25.72a2.64,2.64,0,0,1-.93-2v-.13a2.34,2.34,0,0,1,3.79-2L48.1,38.8a2.65,2.65,0,0,1,.91,2h0A2.61,2.61,0,0,1,48,42.93Z" transform="translate(-3 -3)"/></svg>